#!OML:ASF E:\emotionWalksFemale\Project 1\Capture day 1\Session 1\Female1.ASF
:FULLY-SPECIFIED
:DEGREES
596
root 10.0368 15.4252 -22.2191 -182.312 -8.18843 -174.41
lowerback 6.67661 1.01042 1.90422
upperback -3.67269 1.50265 0.0621964
thorax -7.55814 0.621929 -1.19783
lowerneck -4.86843 -6.93965 -12.2744
upperneck 8.99592 -10.6112 16.2425
head 5.01455 -5.12067 6.38879
rclavicle -8.15017e-015 -3.18055e-015
rhumerus -34.7527 5.34791 -84.1507
rradius 31.4569
rwrist 18.2151
rhand -3.28869 -53.9943
rfingers 7.12502
rthumb 22.4369 -82.7111
lclavicle -8.15017e-015 -3.18055e-015
lhumerus -39.6686 -0.83529 85.1244
lradius 35.6476
lwrist -14.4352
lhand -5.93992 -34.6204
lfingers 7.12502
lthumb 19.8901 -5.61827
rfemur -3.33708 15.2709 35.8446
rtibia 17.9539
rfoot -11.9225 -31.109
rtoes 21.1806
lfemur -21.2506 1.94715 -14.4175
ltibia 69.972
lfoot -10.5056 4.83795
ltoes -23.8172
597
root 10.0405 15.4128 -22.3204 -182.284 -8.00605 -174.364
lowerback 6.74178 1.09909 2.01055
upperback -3.72148 1.63016 0.0174875
thorax -7.64011 0.675747 -1.32316
lowerneck -4.70165 -6.95186 -12.3906
upperneck 8.89622 -10.6122 16.2311
head 4.96136 -5.13173 6.41012
rclavicle -1.39149e-015 1.03368e-014
rhumerus -34.3529 5.59025 -84.3489
rradius 31.3591
rwrist 18.669
rhand -3.00508 -53.8223
rfingers 7.12502
rthumb 22.7091 -82.506
lclavicle -1.39149e-015 1.03368e-014
lhumerus -39.8699 -0.67654 85.0027
lradius 35.7809
lwrist -13.9431
lhand -6.06592 -34.8241
lfingers 7.12502
lthumb 19.769 -5.80942
rfemur -3.12829 15.0833 36.0984
rtibia 18.3774
rfoot -12.5171 -30.9823
rtoes 22.266
lfemur -22.2523 1.87536 -14.6435
ltibia 69.3264
lfoot -11.9765 5.11989
ltoes -24.5707
598
root 10.0476 15.3955 -22.4201 -182.241 -7.75204 -174.241
lowerback 6.41111 1.15949 2.06786
upperback -3.60238 1.71032 0.0445716
thorax -7.31694 0.719239 -1.32703
lowerneck -4.11834 -6.74263 -12.4308
upperneck 8.19828 -10.3096 16.474
head 4.62092 -5.01228 6.54446
rclavicle 6.75868e-015 -1.43125e-014
rhumerus -33.7137 5.85741 -84.5371
rradius 31.4239
rwrist 19.4967
rhand -1.82904 -54.089
rfingers 7.12502
rthumb 23.8374 -82.63
lclavicle 6.75868e-015 -1.43125e-014
lhumerus -39.9877 -0.0885209 84.7171
lradius 36.2318
lwrist -13.8446
lhand -6.09309 -34.7671
lfingers 7.12502
lthumb 19.7429 -5.74968
rfemur -2.9787 15.2038 36.4564
rtibia 18.8563
rfoot -12.8791 -31.0724
rtoes 22.0155
lfemur -23.2399 1.82376 -14.7675
ltibia 68.583
lfoot -13.0415 5.59751
ltoes -24.9904
599
root 10.0521 15.3811 -22.5213 -182.207 -7.48036 -174.274
lowerback 6.57252 1.30609 2.07862
upperback -3.59079 1.91032 -0.00980983
thorax -7.38869 0.815266 -1.41948
lowerneck -4.74973 -6.96946 -12.5179
upperneck 8.61933 -10.5902 16.3839
head 4.89935 -5.11692 6.4815
rclavicle 2.11706e-014 1.59028e-015
rhumerus -33.1852 6.2456 -84.7738
rradius 31.5549
rwrist 19.4452
rhand -1.11072 -54.5251
rfingers 7.12502
rthumb 24.5261 -82.9745
lclavicle 2.11706e-014 1.59028e-015
lhumerus -40.1565 0.0939827 84.6236
lradius 36.8136
lwrist -13.5641
lhand -5.94675 -34.5835
lfingers 7.12502
lthumb 19.8835 -5.58063
rfemur -2.82038 15.3699 36.6437
rtibia 19.3841
rfoot -13.1801 -31.1473
rtoes 20.4458
lfemur -24.1478 1.73615 -15.0931
ltibia 67.6615
lfoot -13.6207 6.4729
ltoes -26.3818
600
root 10.051 15.3696 -22.6203 -182.125 -7.31157 -174.484
lowerback 6.69261 1.39849 1.99305
upperback -3.66111 2.01942 -0.148281
thorax -7.52725 0.86627 -1.53561
lowerneck -4.80543 -7.1275 -12.8187
upperneck 8.65897 -10.8082 16.5631
head 4.98132 -5.2232 6.56704
rclavicle 4.96962e-016 1.19271e-014
rhumerus -32.9097 6.7026 -85.1698
rradius 31.7031
rwrist 18.9788
rhand -1.08552 -54.7137
rfingers 7.12502
rthumb 24.5502 -83.1598
lclavicle 4.96962e-016 1.19271e-014
lhumerus -40.4282 0.131755 84.5216
lradius 37.1022
lwrist -13.1665
lhand -5.73641 -34.4997
lfingers 7.12502
lthumb 20.0857 -5.5179
rfemur -2.66431 15.3115 36.5929
rtibia 19.8485
rfoot -13.7796 -31.0699
rtoes 20.3946
lfemur -25.0355 1.47288 -15.6455
ltibia 66.5721
lfoot -14.5142 7.53228
ltoes -29.4018
601
root 10.0525 15.36 -22.7176 -181.952 -7.2223 -174.62
lowerback 6.67449 1.47455 1.97198
upperback -3.70105 2.10922 -0.278545
thorax -7.55179 0.906609 -1.67227
lowerneck -4.30467 -6.79873 -12.485
upperneck 8.09136 -10.3146 16.3903
head 4.62109 -5.0041 6.51938
rclavicle 1.59028e-015 5.56597e-015
rhumerus -32.538 6.85642 -85.4583
rradius 31.8472
rwrist 19.0052
rhand -1.07579 -54.6628
rfingers 7.12502
rthumb 24.5596 -83.1076
lclavicle 1.59028e-015 5.56597e-015
lhumerus -40.4462 0.145103 84.4535
lradius 37.0691
lwrist -12.7955
lhand -5.95777 -34.5644
lfingers 7.12502
lthumb 19.8729 -5.56049
rfemur -2.57636 15.2976 36.5986
rtibia 20.1815
rfoot -14.4035 -31.0931
rtoes 20.7294
lfemur -26.002 1.12034 -16.0743
ltibia 65.3553
lfoot -15.7474 8.45289
ltoes -32.2647
602
root 10.0569 15.3492 -22.8176 -181.828 -7.12801 -174.596
lowerback 6.6911 1.54848 2.03942
upperback -3.67157 2.21364 -0.319772
thorax -7.52157 0.954552 -1.76672
lowerneck -4.63895 -6.8196 -12.5023
upperneck 8.11344 -10.304 16.4153
head 4.68674 -4.9797 6.52005
rclavicle 7.25564e-015 8.74653e-015
rhumerus -31.9983 7.03596 -85.662
rradius 31.9201
rwrist 19.2927
rhand -1.29848 -54.3628
rfingers 7.12502
rthumb 24.3461 -82.8364
lclavicle 7.25564e-015 8.74653e-015
lhumerus -40.2945 0.0916464 84.5091
lradius 37.0425
lwrist -12.3168
lhand -6.4005 -34.7072
lfingers 7.12502
lthumb 19.4473 -5.65972
rfemur -2.37203 15.2924 36.7967
rtibia 20.3639
rfoot -14.9454 -31.069
rtoes 20.0578
lfemur -26.8582 0.798837 -16.2773
ltibia 64.0094
lfoot -16.2834 9.1223
ltoes -31.6109
